<svg width="32" height="32" viewBox="0 0 32 32" fill="none" xmlns="http://www.w3.org/2000/svg">
<rect width="32" height="32" rx="8" fill="#FFFAFA"/>
<path d="M12.8621 12.8005C12.7911 12.7215 12.7496 12.6264 12.7429 12.5274C12.7363 12.4284 12.7647 12.33 12.8246 12.2447C12.8846 12.1594 12.9733 12.0911 13.0794 12.0484C13.1856 12.0058 13.3044 11.9909 13.4207 12.0054C13.5763 12.0243 13.7166 12.0944 13.8109 12.2004L16.3012 15.0007V8.50005C16.3012 8.36743 16.3637 8.24024 16.4749 8.14646C16.5861 8.05268 16.7369 8 16.8942 8C17.0514 8 17.2022 8.05268 17.3134 8.14646C17.4246 8.24024 17.4871 8.36743 17.4871 8.50005V15.0007L19.9775 12.2004C20.0481 12.1218 20.1447 12.0624 20.2552 12.0299C20.3656 11.9974 20.485 11.993 20.5984 12.0175C20.7118 12.042 20.814 12.0941 20.8924 12.1674C20.9707 12.2407 21.0217 12.3319 21.0388 12.4295C21.0499 12.4945 21.0456 12.5608 21.0263 12.6244C21.007 12.6881 20.9729 12.7479 20.9262 12.8005L17.3685 16.8009C17.3614 16.8089 17.3484 16.8129 17.3401 16.8209C17.3006 16.86 17.2542 16.8938 17.2025 16.9209C17.1841 16.9339 17.1643 16.9453 17.1432 16.9549C17.0659 16.9875 16.9806 17.0045 16.8942 17.0045C16.8077 17.0045 16.7225 16.9875 16.6451 16.9549C16.6241 16.9453 16.6042 16.9339 16.5858 16.9209C16.5342 16.8938 16.4878 16.86 16.4483 16.8209C16.44 16.8129 16.4269 16.8089 16.4198 16.8009L12.8621 12.8005ZM13.633 22.7515C13.6335 22.9988 13.5467 23.2407 13.3837 23.4462C13.2206 23.6518 12.9887 23.8117 12.7175 23.9057C12.515 23.976 12.2967 24.0077 12.078 23.9984C11.8593 23.9892 11.6458 23.9393 11.4527 23.8524C11.2596 23.7654 11.0916 23.6435 10.9609 23.4953C10.8303 23.3472 10.74 23.1766 10.6967 22.9956C10.6555 22.8242 10.6573 22.6474 10.7021 22.4767C10.7469 22.306 10.8337 22.1451 10.9568 22.0044C11.08 21.8637 11.2367 21.7463 11.417 21.6599C11.5973 21.5735 11.7971 21.52 12.0034 21.5028C12.2097 21.4855 12.4181 21.505 12.6149 21.5599C12.8118 21.6149 12.9928 21.704 13.1463 21.8216C13.2997 21.9392 13.4223 22.0826 13.5059 22.2426C13.5895 22.4026 13.6324 22.5757 13.6318 22.7505L13.633 22.7515ZM23.1201 22.7515C23.1206 22.9988 23.0338 23.2407 22.8708 23.4462C22.7077 23.6518 22.4758 23.8117 22.2046 23.9057C22.0021 23.976 21.7838 24.0077 21.5651 23.9984C21.3464 23.9892 21.1329 23.9393 20.9398 23.8524C20.7467 23.7654 20.5787 23.6435 20.4481 23.4953C20.3174 23.3472 20.2271 23.1766 20.1838 22.9956C20.1444 22.8249 20.1478 22.6492 20.1935 22.4797C20.2393 22.3101 20.3266 22.1505 20.4497 22.0111C20.5728 21.8716 20.7291 21.7554 20.9085 21.6698C21.088 21.5842 21.2867 21.5311 21.4918 21.514C21.697 21.4969 21.9041 21.516 22.1 21.5703C22.2959 21.6246 22.4761 21.7127 22.6293 21.8291C22.7824 21.9455 22.9051 22.0876 22.9894 22.2463C23.0737 22.4049 23.1178 22.5767 23.1189 22.7505L23.1201 22.7515ZM23.4165 13.5006C23.2593 13.5006 23.1085 13.5533 22.9973 13.647C22.8861 13.7408 22.8236 13.868 22.8236 14.0006L22.2307 18.001H11.6644L10.3599 11.4204C10.337 11.3041 10.2661 11.1984 10.1598 11.1219C10.0535 11.0454 9.91857 11.0031 9.77883 11.0023H8.59294C8.43569 11.0023 8.28487 11.055 8.17367 11.1488C8.06247 11.2426 8 11.3697 8 11.5024C8 11.635 8.06247 11.7622 8.17367 11.856C8.28487 11.9497 8.43569 12.0024 8.59294 12.0024H9.27602L10.9718 20.5833C10.9939 20.7004 11.0651 20.807 11.1723 20.8837C11.2796 20.9604 11.4159 21.0021 11.5565 21.0014H22.2295C22.3867 21.0014 22.5375 20.9487 22.6487 20.8549C22.7599 20.7611 22.8224 20.6339 22.8224 20.5013C22.8224 20.3687 22.7599 20.2415 22.6487 20.1477C22.5375 20.0539 22.3867 20.0013 22.2295 20.0013H12.0546L11.8565 19.0012H22.2212C22.5102 19.0011 22.7892 18.912 23.0058 18.7507C23.2224 18.5894 23.3617 18.3669 23.3976 18.1251L24 14.0046C24 13.872 23.9375 13.7448 23.8263 13.651C23.7151 13.5573 23.5643 13.5046 23.4071 13.5046L23.4165 13.5006Z" fill="#DA498C"/>
</svg>
